<svg xmlns="http://www.w3.org/2000/svg" xmlns:xlink="http://www.w3.org/1999/xlink" preserveAspectRatio="xMidYMid meet" version="1.0" viewBox="0.0 0.0 4299.6 4294.2" zoomAndPan="magnify" style="fill: rgb(0, 0, 0);" original_string_length="34369" width="156.18951487855696px" height="155.97157602058687px"><defs><clipPath id="__id2_sh4w5xbpt5"><path d="M 0 0 L 4299.589844 0 L 4299.589844 4294.210938 L 0 4294.210938 Z M 0 0"/></clipPath></defs><g><g clip-path="url(#__id2_sh4w5xbpt5)" id="__id3_sh4w5xbpt5"><path d="M 4299.597656 2147.097656 C 4299.597656 2182.617188 4180.527344 2214.984375 4178.761719 2250.066406 C 4176.992188 2285.515625 4292.238281 2329.605469 4288.730469 2364.566406 C 4285.167969 2399.875 4163.460938 2420.125 4158.160156 2454.898438 C 4152.859375 2489.957031 4263.039062 2545.464844 4255.996094 2579.9375 C 4248.898438 2614.664062 4125.742188 2622.457031 4116.929688 2656.535156 C 4108.09375 2690.847656 4212.050781 2757.277344 4201.523438 2790.878906 C 4190.921875 2824.675781 4067.628906 2819.867188 4055.390625 2852.90625 C 4043.097656 2886.097656 4139.746094 2962.789062 4125.820312 2995.167969 C 4111.867188 3027.679688 3989.683594 3010.335938 3974.148438 3041.976562 C 3958.53125 3073.71875 4046.898438 3159.835938 4029.75 3190.660156 C 4012.578125 3221.558594 3892.796875 3191.90625 3874.097656 3221.828125 C 3855.367188 3251.820312 3934.554688 3346.4375 3914.375 3375.386719 C 3894.167969 3404.378906 3777.976562 3362.777344 3756.371094 3390.667969 C 3734.714844 3418.597656 3803.957031 3520.726562 3780.957031 3547.5 C 3757.925781 3574.289062 3646.535156 3521.207031 3622.214844 3546.796875 C 3597.867188 3572.390625 3656.476562 3680.96875 3630.890625 3705.300781 C 3605.304688 3729.628906 3499.820312 3665.621094 3473.019531 3688.640625 C 3446.246094 3711.636719 3493.648438 3825.570312 3465.714844 3847.210938 C 3437.832031 3868.828125 3339.335938 3794.519531 3310.347656 3814.726562 C 3281.410156 3834.910156 3317.074219 3953.039062 3287.082031 3971.769531 C 3257.167969 3990.449219 3166.691406 3906.566406 3135.777344 3923.757812 C 3104.96875 3940.886719 3128.5 4062.019531 3096.765625 4077.621094 C 3065.136719 4093.167969 2983.605469 4000.539062 2951.105469 4014.5 C 2918.742188 4028.417969 2929.820312 4151.308594 2896.636719 4163.609375 C 2863.609375 4175.851562 2791.941406 4075.398438 2758.152344 4085.988281 C 2724.574219 4096.519531 2723.070312 4219.898438 2688.777344 4228.757812 C 2654.699219 4237.558594 2593.65625 4130.328125 2558.9375 4137.429688 C 2524.464844 4144.480469 2510.414062 4267.070312 2475.355469 4272.398438 C 2440.59375 4277.679688 2390.761719 4164.808594 2355.464844 4168.351562 C 2320.496094 4171.871094 2294.125 4292.417969 2258.664062 4294.191406 C 2223.582031 4295.941406 2185.3125 4178.628906 2149.792969 4178.628906 C 2114.285156 4178.628906 2076.023438 4295.941406 2040.941406 4294.191406 C 2005.484375 4292.417969 1979.125 4171.871094 1944.152344 4168.359375 C 1908.84375 4164.808594 1859.003906 4277.679688 1824.230469 4272.398438 C 1789.171875 4267.070312 1775.121094 4144.46875 1740.652344 4137.429688 C 1705.925781 4130.328125 1644.875 4237.550781 1610.792969 4228.75 C 1576.484375 4219.898438 1574.992188 4096.507812 1541.394531 4085.96875 C 1507.59375 4075.378906 1435.933594 4175.828125 1402.902344 4163.589844 C 1369.710938 4151.289062 1380.800781 4028.390625 1348.421875 4014.480469 C 1315.910156 4000.511719 1234.394531 4093.128906 1202.761719 4077.578125 C 1171.011719 4061.980469 1194.542969 3940.847656 1163.730469 3923.707031 C 1132.824219 3906.519531 1042.332031 3990.398438 1012.414062 3971.707031 C 982.429688 3952.980469 1018.101562 3834.847656 989.160156 3814.667969 C 960.167969 3794.449219 861.660156 3868.757812 833.769531 3847.140625 C 805.84375 3825.488281 853.25 3711.558594 826.472656 3688.558594 C 799.679688 3665.53125 694.191406 3729.539062 668.601562 3705.210938 C 643.011719 3680.878906 701.636719 3572.300781 677.300781 3546.707031 C 652.972656 3521.117188 541.578125 3574.199219 518.558594 3547.398438 C 495.554688 3520.628906 564.804688 3418.496094 543.15625 3390.578125 C 521.539062 3362.6875 405.363281 3404.277344 385.152344 3375.289062 C 364.972656 3346.347656 444.167969 3251.730469 425.4375 3221.738281 C 406.753906 3191.828125 286.972656 3221.46875 269.785156 3190.566406 C 252.648438 3159.757812 341.015625 3073.636719 325.417969 3041.898438 C 309.871094 3010.269531 187.703125 3027.605469 173.730469 2995.097656 C 159.820312 2962.71875 256.484375 2886.035156 244.1875 2852.835938 C 231.949219 2819.816406 108.648438 2824.625 98.058594 2790.835938 C 87.527344 2757.234375 191.503906 2690.808594 182.644531 2656.507812 C 173.847656 2622.4375 50.699219 2614.648438 43.597656 2579.914062 C 36.550781 2545.457031 146.75 2489.957031 141.421875 2454.898438 C 136.140625 2420.136719 14.417969 2399.886719 10.871094 2364.585938 C 7.355469 2329.617188 122.597656 2285.535156 120.828125 2250.074219 C 119.078125 2214.984375 0 2182.617188 0 2147.097656 C 0 2111.585938 119.078125 2079.214844 120.828125 2044.136719 C 122.597656 2008.675781 7.355469 1964.59375 10.867188 1929.625 C 14.417969 1894.324219 136.140625 1874.074219 141.421875 1839.304688 C 146.75 1804.246094 36.554688 1748.734375 43.601562 1714.265625 C 50.703125 1679.535156 173.851562 1671.746094 182.652344 1637.664062 C 191.511719 1603.347656 87.539062 1536.902344 98.070312 1503.324219 C 108.664062 1469.53125 231.96875 1474.332031 244.207031 1441.28125 C 256.507812 1408.097656 159.847656 1331.417969 173.761719 1299.027344 C 187.734375 1266.527344 309.90625 1283.859375 325.453125 1252.230469 C 341.054688 1220.472656 252.695312 1134.347656 269.835938 1103.539062 C 287.027344 1072.625 406.808594 1102.273438 425.492188 1072.386719 C 444.226562 1042.394531 365.035156 947.75 385.21875 918.816406 C 405.4375 889.824219 521.605469 931.421875 543.230469 903.515625 C 564.878906 875.609375 495.636719 773.472656 518.644531 746.699219 C 541.667969 719.898438 653.054688 772.996094 677.386719 747.410156 C 701.726562 721.796875 643.105469 613.226562 668.699219 588.90625 C 694.289062 564.558594 799.773438 628.578125 826.566406 605.550781 C 853.339844 582.550781 805.941406 468.625 833.867188 446.992188 C 861.761719 425.363281 960.261719 499.671875 989.253906 479.464844 C 1018.191406 459.285156 982.519531 341.164062 1012.503906 322.4375 C 1042.421875 303.761719 1132.914062 387.644531 1163.8125 370.445312 C 1194.632812 353.300781 1171.089844 232.171875 1202.84375 216.582031 C 1234.472656 201.019531 1315.984375 293.660156 1348.492188 279.703125 C 1380.863281 265.777344 1369.773438 142.882812 1402.964844 130.589844 C 1435.992188 118.351562 1507.640625 218.796875 1541.433594 208.21875 C 1575.03125 197.667969 1576.523438 74.300781 1610.820312 65.4375 C 1644.902344 56.625 1705.941406 163.878906 1740.664062 156.757812 C 1775.132812 149.714844 1789.171875 27.136719 1824.230469 21.808594 C 1858.992188 16.53125 1908.835938 129.402344 1944.132812 125.84375 C 1979.105469 122.335938 2005.476562 1.785156 2040.925781 0.0195312 C 2076.015625 -1.746094 2114.273438 115.554688 2149.792969 115.554688 C 2185.3125 115.554688 2223.574219 -1.746094 2258.65625 0.0195312 C 2294.113281 1.785156 2320.472656 122.335938 2355.445312 125.84375 C 2390.753906 129.402344 2440.59375 16.507812 2475.355469 21.808594 C 2510.425781 27.136719 2524.476562 149.714844 2558.945312 156.785156 C 2593.675781 163.878906 2654.726562 56.652344 2688.804688 65.4375 C 2723.097656 74.300781 2724.601562 197.695312 2758.207031 208.21875 C 2791.996094 218.824219 2863.664062 118.378906 2896.6875 130.617188 C 2929.871094 142.910156 2918.792969 265.804688 2951.1875 279.730469 C 2983.683594 293.683594 3065.191406 201.070312 3096.84375 216.609375 C 3128.578125 232.222656 3105.046875 353.351562 3135.859375 370.496094 C 3166.773438 387.667969 3257.273438 303.8125 3287.1875 322.488281 C 3317.152344 341.21875 3281.488281 459.339844 3310.425781 479.515625 C 3339.414062 499.75 3437.9375 425.441406 3465.820312 447.074219 C 3493.753906 468.703125 3446.351562 582.628906 3473.125 605.65625 C 3499.925781 628.65625 3605.410156 564.664062 3630.996094 588.984375 C 3656.582031 613.332031 3597.945312 721.902344 3622.292969 747.492188 C 3646.640625 773.078125 3758.007812 720.003906 3781.035156 746.804688 C 3804.035156 773.578125 3734.792969 875.6875 3756.425781 903.621094 C 3778.054688 931.503906 3894.222656 889.929688 3914.453125 918.921875 C 3934.605469 947.855469 3855.421875 1042.472656 3874.148438 1072.464844 C 3892.824219 1102.378906 4012.605469 1072.730469 4029.804688 1103.644531 C 4046.949219 1134.453125 3958.585938 1220.550781 3974.171875 1252.3125 C 3989.738281 1283.9375 4111.890625 1266.605469 4125.847656 1299.105469 C 4139.773438 1331.46875 4043.097656 1408.175781 4055.417969 1441.359375 C 4067.65625 1474.386719 4190.945312 1469.585938 4201.523438 1503.375 C 4212.074219 1536.953125 4108.09375 1603.375 4116.957031 1637.691406 C 4125.742188 1671.765625 4248.898438 1679.554688 4255.996094 1714.273438 C 4263.039062 1748.746094 4152.859375 1804.246094 4158.160156 1839.304688 C 4163.460938 1874.0625 4285.167969 1894.304688 4288.730469 1929.605469 C 4292.238281 1964.574219 4176.992188 2008.664062 4178.761719 2044.125 C 4180.527344 2079.203125 4299.597656 2111.574219 4299.597656 2147.097656" style="fill: rgb(247, 234, 211);"/></g><g id="__id4_sh4w5xbpt5"><path d="M 2149.789062 236.691406 C 1096.386719 236.691406 239.382812 1093.699219 239.382812 2147.101562 C 239.382812 3200.488281 1096.386719 4057.511719 2149.789062 4057.511719 C 3203.167969 4057.511719 4060.207031 3200.488281 4060.207031 2147.101562 C 4060.207031 1093.699219 3203.167969 236.691406 2149.789062 236.691406 Z M 2149.789062 4088.238281 C 1079.441406 4088.238281 208.660156 3217.441406 208.660156 2147.101562 C 208.660156 1076.761719 1079.441406 205.96875 2149.789062 205.96875 C 3220.136719 205.96875 4090.925781 1076.761719 4090.925781 2147.101562 C 4090.925781 3217.441406 3220.136719 4088.238281 2149.789062 4088.238281" style="fill: rgb(58, 56, 56);"/></g><g id="__id5_sh4w5xbpt5"><path d="M 2113.433594 352.714844 C 2113.433594 335.25 2127.320312 321.078125 2144.75 321.078125 C 2162.214844 321.078125 2176.101562 334.980469 2176.402344 352.421875 C 2176.402344 369.863281 2162.214844 384.03125 2144.75 384.03125 C 2127.621094 384.03125 2113.433594 370.152344 2113.433594 352.714844 Z M 2317.722656 392.035156 C 2300.28125 390.253906 2287.582031 374.886719 2289.34375 357.738281 C 2290.8125 340.273438 2306.203125 327.589844 2323.640625 329.347656 C 2340.792969 330.835938 2353.5 346.203125 2352.023438 363.640625 C 2350.554688 379.910156 2336.632812 392.035156 2320.703125 392.035156 C 2319.511719 392.035156 2318.621094 392.035156 2317.722656 392.035156 Z M 1937.792969 364.542969 C 1936.03125 347.398438 1948.730469 332.007812 1965.882812 330.226562 C 1983.320312 328.46875 1998.703125 341.175781 2000.472656 358.324219 C 2001.960938 375.765625 1989.53125 391.15625 1972.09375 392.910156 C 1971.210938 392.910156 1970.03125 392.910156 1969.132812 392.910156 C 1952.882812 392.910156 1939.28125 380.789062 1937.792969 364.542969 Z M 2488.910156 416.570312 C 2471.761719 413.328125 2460.542969 396.765625 2463.785156 379.617188 C 2467.347656 362.472656 2483.882812 351.519531 2500.761719 354.789062 C 2517.910156 358.03125 2529.128906 374.59375 2525.59375 391.742188 C 2522.933594 406.816406 2509.617188 417.15625 2494.835938 417.15625 C 2492.761719 417.15625 2490.714844 416.863281 2488.910156 416.570312 Z M 1764.25 393.8125 C 1760.691406 376.640625 1771.640625 360.105469 1788.792969 356.835938 C 1805.933594 353.300781 1822.480469 364.542969 1825.753906 381.375 C 1829.28125 398.546875 1818.050781 415.109375 1801.203125 418.351562 C 1799.132812 418.9375 1797.0625 419.230469 1795.003906 419.230469 C 1780.210938 419.230469 1767.214844 408.886719 1764.25 393.8125 Z M 2656.550781 457.964844 C 2640.015625 452.9375 2630.550781 435.5 2635.574219 418.644531 C 2640.574219 402.082031 2658.015625 392.617188 2674.894531 397.644531 C 2691.429688 402.691406 2700.894531 420.132812 2695.894531 436.960938 C 2691.75 450.574219 2679.332031 459.453125 2665.722656 459.453125 C 2662.769531 459.453125 2659.820312 458.867188 2656.550781 457.964844 Z M 1594.242188 439.9375 C 1589.222656 423.375 1598.371094 405.621094 1615.230469 400.59375 C 1631.792969 395.570312 1649.230469 404.742188 1654.5625 421.597656 C 1659.582031 438.15625 1650.113281 455.597656 1633.5625 460.914062 C 1630.300781 461.816406 1627.34375 462.109375 1624.402344 462.109375 C 1610.800781 462.109375 1598.371094 453.523438 1594.242188 439.9375 Z M 2819.78125 515.917969 C 2803.484375 509.113281 2795.800781 490.792969 2802.632812 474.816406 C 2809.121094 458.550781 2827.460938 450.867188 2843.707031 457.671875 C 2859.683594 464.160156 2867.367188 482.5 2860.855469 498.769531 C 2855.855469 510.894531 2844 518.285156 2831.585938 518.285156 C 2827.460938 518.285156 2823.609375 517.40625 2819.78125 515.917969 Z M 1429.550781 502.601562 C 1423.050781 486.648438 1430.441406 468.011719 1446.703125 461.5 C 1462.660156 454.71875 1481 462.402344 1487.800781 478.378906 C 1494.601562 494.332031 1486.902344 512.648438 1470.953125 519.453125 C 1466.8125 521.234375 1462.660156 521.820312 1458.820312 521.820312 C 1446.410156 521.820312 1434.582031 514.746094 1429.550781 502.601562 Z M 2976.175781 589.238281 C 2960.785156 581.261719 2954.882812 562.042969 2963.152344 546.652344 C 2971.445312 531.285156 2990.375 525.382812 3005.765625 533.652344 C 3021.105469 541.945312 3027.035156 560.847656 3018.742188 576.214844 C 3013.15625 586.871094 3002.203125 593.09375 2990.957031 593.09375 C 2985.933594 593.09375 2980.886719 591.898438 2976.175781 589.238281 Z M 1272.261719 581.261719 C 1263.980469 565.894531 1269.601562 546.652344 1284.980469 538.382812 C 1300.050781 530.113281 1319.261719 536.015625 1327.550781 551.113281 C 1335.824219 566.480469 1329.921875 585.703125 1314.832031 593.96875 C 1310.101562 596.628906 1304.78125 597.800781 1299.761719 597.800781 C 1288.511719 597.800781 1277.871094 591.605469 1272.261719 581.261719 Z M 3124.601562 677.949219 L 3124.894531 677.949219 C 3110.402344 668.195312 3106.257812 648.679688 3116.015625 634.167969 C 3125.476562 619.703125 3145.015625 615.851562 3159.480469 625.3125 C 3173.96875 635.070312 3178.113281 654.582031 3168.359375 669.070312 C 3162.457031 678.242188 3152.40625 683.269531 3142.039062 683.269531 C 3136.113281 683.269531 3129.894531 681.488281 3124.601562 677.949219 Z M 1122.949219 674.683594 C 1113.191406 660.484375 1117.03125 640.679688 1131.53125 631.214844 C 1146.011719 621.460938 1165.53125 625.3125 1175.292969 639.800781 C 1185.03125 654 1181.191406 673.511719 1166.710938 683.269531 C 1161.382812 687.097656 1155.179688 688.585938 1149.261719 688.585938 C 1138.921875 688.585938 1129.160156 683.851562 1122.949219 674.683594 Z M 3263.851562 780.542969 C 3250.535156 769.589844 3248.484375 749.785156 3259.4375 736.171875 C 3270.339844 722.878906 3290.144531 720.804688 3303.78125 731.757812 C 3317.074219 742.6875 3319.148438 762.492188 3308.195312 776.101562 C 3302 783.785156 3292.851562 787.640625 3283.65625 787.640625 C 3276.875 787.640625 3269.777344 785.273438 3263.851562 780.542969 Z M 983.695312 782.589844 C 972.753906 769.003906 974.53125 749.492188 988.128906 738.246094 C 1001.417969 727.320312 1021.230469 729.097656 1032.484375 742.394531 C 1043.414062 755.980469 1041.652344 775.808594 1028.050781 786.738281 C 1022.128906 791.761719 1015.019531 793.835938 1008.21875 793.835938 C 999.058594 793.835938 989.90625 789.980469 983.695312 782.589844 Z M 3392.492188 896.425781 C 3380.027344 884.011719 3380.027344 864.203125 3392.175781 851.789062 C 3404.589844 839.375 3424.371094 839.375 3436.835938 851.789062 C 3448.933594 863.910156 3449.25 884.011719 3436.835938 896.132812 C 3430.589844 902.351562 3422.617188 905.597656 3414.664062 905.597656 C 3406.664062 905.597656 3398.6875 902.351562 3392.492188 896.425781 Z M 855.671875 903.523438 C 843.253906 891.109375 843.253906 871.300781 855.671875 858.886719 C 867.785156 846.472656 887.894531 846.472656 900.023438 858.886719 C 912.4375 871.007812 912.4375 891.109375 900.3125 903.230469 C 894.101562 909.449219 886.117188 912.695312 877.847656 912.695312 C 869.863281 912.695312 861.882812 909.449219 855.671875 903.523438 Z M 3508.960938 1024.164062 C 3498.007812 1010.847656 3499.8125 991.039062 3513.082031 979.820312 C 3526.695312 968.867188 3546.523438 970.648438 3557.425781 983.941406 C 3568.695312 997.550781 3566.621094 1017.359375 3553.304688 1028.285156 C 3547.378906 1033.308594 3540.304688 1035.675781 3533.207031 1035.675781 C 3524.351562 1035.675781 3515.15625 1031.554688 3508.960938 1024.164062 Z M 740.0625 1035.992188 C 726.460938 1025.042969 724.6875 1005.234375 735.628906 991.917969 C 746.574219 978.332031 766.382812 976.257812 779.980469 987.503906 C 793.277344 998.429688 795.355469 1018.238281 784.414062 1031.554688 C 778.207031 1039.238281 769.039062 1043.382812 759.871094 1043.382812 C 753.070312 1043.382812 745.980469 1041.019531 740.0625 1035.992188 Z M 3612.722656 1162.828125 C 3602.964844 1148.339844 3606.84375 1128.828125 3621.015625 1119.070312 C 3635.503906 1109.3125 3655.015625 1113.167969 3664.773438 1127.339844 C 3674.507812 1141.851562 3670.675781 1161.339844 3656.210938 1171.097656 C 3650.871094 1174.660156 3644.675781 1176.441406 3638.75 1176.441406 C 3628.699219 1176.441406 3618.648438 1171.707031 3612.722656 1162.828125 Z M 637.765625 1179.390625 C 623.269531 1169.925781 619.429688 1150.414062 629.1875 1135.925781 C 638.644531 1121.4375 658.164062 1117.582031 672.65625 1127.046875 C 687.136719 1136.804688 690.976562 1156.316406 681.523438 1170.804688 C 675.3125 1179.976562 665.554688 1184.707031 655.203125 1184.707031 C 649.300781 1184.707031 643.089844 1183.246094 637.765625 1179.390625 Z M 3702.3125 1310.667969 L 3702.042969 1310.667969 C 3693.75 1295.273438 3699.652344 1276.371094 3715.019531 1268.078125 C 3730.117188 1259.808594 3749.316406 1265.417969 3757.609375 1280.785156 C 3765.902344 1295.886719 3759.972656 1315.105469 3744.925781 1323.375 C 3740.167969 1326.03125 3734.828125 1327.226562 3729.828125 1327.226562 C 3718.582031 1327.226562 3707.945312 1321.007812 3702.3125 1310.667969 Z M 550.246094 1332.253906 C 534.875 1323.960938 528.953125 1305.054688 537.242188 1289.664062 C 545.226562 1274.296875 564.4375 1268.371094 579.816406 1276.664062 C 595.1875 1284.933594 601.09375 1303.859375 592.824219 1319.226562 C 587.207031 1329.886719 576.265625 1335.789062 565.03125 1335.789062 C 560.007812 1335.789062 554.980469 1334.617188 550.246094 1332.253906 Z M 3776.851562 1466.773438 C 3770.023438 1450.527344 3777.707031 1432.183594 3793.683594 1425.378906 C 3809.636719 1418.574219 3827.976562 1426.257812 3834.78125 1442.234375 C 3841.5625 1458.503906 3833.90625 1476.820312 3817.929688 1483.625 C 3814.097656 1485.113281 3809.929688 1485.992188 3805.804688 1485.992188 C 3793.390625 1485.992188 3781.851562 1478.601562 3776.851562 1466.773438 Z M 477.804688 1492.796875 C 461.839844 1486.285156 454.15625 1467.675781 460.957031 1451.699219 C 467.453125 1435.722656 485.789062 1428.039062 502.058594 1434.550781 C 518.027344 1441.355469 525.707031 1459.671875 519.195312 1475.648438 C 514.171875 1487.75 502.347656 1495.164062 489.933594 1495.164062 C 485.789062 1495.164062 481.949219 1494.554688 477.804688 1492.796875 Z M 3835.660156 1629.390625 C 3830.34375 1612.535156 3839.808594 1595.09375 3856.371094 1589.777344 C 3872.929688 1584.753906 3890.664062 1594.21875 3895.6875 1610.753906 C 3900.714844 1627.316406 3891.566406 1645.074219 3874.980469 1650.097656 C 3871.761719 1650.976562 3868.785156 1651.5625 3865.539062 1651.5625 C 3852.222656 1651.5625 3839.808594 1642.707031 3835.660156 1629.390625 Z M 421.9375 1659.855469 C 405.375 1654.804688 395.90625 1637.074219 400.929688 1620.511719 C 405.96875 1603.972656 423.40625 1594.511719 439.964844 1599.535156 C 456.8125 1604.242188 465.984375 1622 461.246094 1638.5625 C 457.117188 1652.148438 444.398438 1661.027344 431.089844 1661.027344 C 428.140625 1661.027344 424.878906 1660.734375 421.9375 1659.855469 Z M 3877.957031 1796.738281 C 3874.6875 1779.886719 3885.640625 1763.324219 3902.785156 1759.785156 C 3919.617188 1756.226562 3936.203125 1767.445312 3939.738281 1784.324219 C 3943.300781 1801.472656 3932.054688 1818.007812 3915.203125 1821.570312 C 3913.128906 1821.863281 3910.761719 1822.15625 3909.007812 1822.15625 C 3894.226562 1822.15625 3881.199219 1811.8125 3877.957031 1796.738281 Z M 382.609375 1831.328125 C 365.75 1828.082031 354.515625 1811.519531 357.761719 1794.375 C 361.027344 1777.226562 377.585938 1766.273438 394.71875 1769.542969 C 411.871094 1772.789062 422.816406 1789.347656 419.566406 1806.496094 C 416.605469 1821.570312 403.601562 1831.914062 388.816406 1831.914062 C 386.738281 1831.914062 384.671875 1831.621094 382.609375 1831.328125 Z M 3903.980469 1967.925781 C 3902.175781 1950.476562 3914.617188 1935.097656 3932.054688 1933.335938 C 3949.203125 1931.554688 3964.59375 1944.265625 3966.351562 1961.417969 C 3968.132812 1978.867188 3955.714844 1994.226562 3938.277344 1996.007812 C 3937.375 1996.007812 3936.203125 1996.304688 3935.007812 1996.304688 C 3919.054688 1996.304688 3905.445312 1984.175781 3903.980469 1967.925781 Z M 360.433594 2006.066406 C 342.980469 2004.296875 330.277344 1988.917969 332.050781 1971.765625 C 333.8125 1954.324219 349.1875 1941.605469 366.339844 1943.386719 C 383.792969 1944.855469 396.5 1960.226562 394.71875 1977.6875 C 393.25 1993.9375 379.648438 2006.066406 363.378906 2006.066406 C 362.5 2006.066406 361.3125 2006.066406 360.433594 2006.066406 Z M 3912.835938 2147.097656 C 3912.835938 2145.917969 3912.835938 2144.738281 3913.128906 2143.839844 C 3912.835938 2142.65625 3912.835938 2141.488281 3912.835938 2140.585938 C 3912.835938 2123.148438 3926.714844 2108.957031 3944.15625 2108.957031 C 3961.644531 2108.957031 3975.816406 2122.847656 3975.816406 2140.296875 C 3975.816406 2141.488281 3975.816406 2142.65625 3975.523438 2143.839844 C 3975.816406 2144.738281 3975.816406 2145.917969 3975.816406 2147.097656 C 3975.816406 2164.535156 3961.644531 2178.71875 3944.15625 2178.71875 C 3927.007812 2178.71875 3912.835938 2164.535156 3912.835938 2147.097656 Z M 323.765625 2150.636719 C 323.765625 2133.195312 337.957031 2119.007812 355.109375 2119.007812 C 372.546875 2119.007812 386.738281 2132.90625 386.738281 2150.347656 C 386.738281 2167.789062 372.546875 2181.976562 355.410156 2181.976562 C 337.957031 2181.976562 323.765625 2167.789062 323.765625 2150.636719 Z M 3932.640625 2354.359375 C 3915.496094 2352.597656 3902.785156 2337.207031 3904.542969 2319.765625 C 3906.03125 2302.617188 3921.421875 2289.90625 3938.863281 2291.667969 C 3956.007812 2293.148438 3968.714844 2308.527344 3967.230469 2325.96875 C 3965.472656 2342.226562 3951.886719 2354.359375 3935.910156 2354.359375 C 3934.714844 2354.359375 3933.835938 2354.359375 3932.640625 2354.359375 Z M 332.644531 2329.238281 C 331.15625 2312.089844 343.570312 2296.699219 361.027344 2294.9375 C 378.164062 2293.148438 393.539062 2305.878906 395.3125 2323.027344 C 397.089844 2340.46875 384.382812 2355.828125 367.234375 2357.617188 C 366.050781 2357.617188 365.15625 2357.617188 363.972656 2357.617188 C 348.019531 2357.617188 334.40625 2345.488281 332.644531 2329.238281 Z M 3904.273438 2527.90625 C 3887.101562 2524.648438 3875.882812 2507.816406 3879.445312 2490.957031 C 3882.664062 2473.808594 3899.25 2462.855469 3916.398438 2466.128906 C 3933.542969 2469.675781 3944.496094 2486.21875 3941.226562 2503.078125 C 3938.277344 2518.15625 3924.957031 2528.488281 3910.175781 2528.488281 C 3908.105469 2528.488281 3906.347656 2528.195312 3904.273438 2527.90625 Z M 359.25 2506.316406 C 355.699219 2489.476562 366.929688 2472.90625 383.792969 2469.359375 C 400.929688 2466.128906 417.488281 2477.066406 420.75 2494.21875 C 424.289062 2511.046875 413.359375 2527.625 396.207031 2531.179688 C 394.128906 2531.46875 392.0625 2531.757812 390 2531.757812 C 375.21875 2531.757812 362.207031 2521.417969 359.25 2506.316406 Z M 3858.441406 2697.917969 C 3841.855469 2692.898438 3832.417969 2675.140625 3837.464844 2658.597656 C 3842.464844 2642.046875 3860.199219 2632.578125 3876.785156 2637.609375 C 3893.324219 2642.628906 3902.785156 2660.359375 3897.761719 2676.925781 C 3893.613281 2690.527344 3881.199219 2699.390625 3867.589844 2699.390625 C 3864.664062 2699.390625 3861.394531 2698.816406 3858.441406 2697.917969 Z M 402.707031 2680.1875 C 397.679688 2663.617188 407.152344 2645.886719 423.699219 2640.867188 C 440.253906 2635.835938 458 2645 463.019531 2661.859375 C 468.046875 2678.398438 458.589844 2695.835938 442.03125 2701.175781 C 439.070312 2702.046875 435.824219 2702.367188 432.863281 2702.367188 C 419.265625 2702.367188 406.847656 2693.789062 402.707031 2680.1875 Z M 3796.34375 2862.621094 C 3780.074219 2856.085938 3772.683594 2837.46875 3779.195312 2821.496094 C 3786 2805.527344 3804.34375 2797.847656 3820.292969 2804.347656 C 3836.5625 2811.15625 3843.953125 2829.496094 3837.464844 2845.46875 C 3832.417969 2857.878906 3820.585938 2864.976562 3808.464844 2864.976562 C 3804.34375 2864.976562 3800.171875 2864.378906 3796.34375 2862.621094 Z M 463.328125 2848.699219 C 456.8125 2832.726562 464.203125 2814.109375 480.476562 2807.609375 C 496.429688 2800.800781 514.761719 2808.507812 521.5625 2824.46875 C 528.074219 2840.726562 520.683594 2859.058594 504.714844 2865.558594 C 500.570312 2867.316406 496.429688 2868.21875 492.589844 2868.21875 C 480.171875 2868.21875 468.351562 2860.828125 463.328125 2848.699219 Z M 3718.289062 3020.5 C 3702.921875 3012.207031 3697.019531 2992.980469 3705.265625 2977.90625 C 3713.558594 2962.546875 3732.484375 2956.628906 3747.851562 2964.90625 C 3763.21875 2973.167969 3769.144531 2992.109375 3760.875 3007.46875 C 3754.949219 3018.128906 3744.316406 3024.050781 3733.070312 3024.050781 C 3728.046875 3024.050781 3723.019531 3022.859375 3718.289062 3020.5 Z M 540.488281 3010.449219 C 532.21875 2995.058594 537.835938 2976.148438 553.207031 2967.859375 C 568.582031 2959.566406 587.496094 2965.199219 595.78125 2980.558594 C 604.054688 2995.949219 598.4375 3015.148438 583.0625 3023.4375 C 578.328125 3025.808594 573.300781 3026.988281 567.992188 3026.988281 C 557.046875 3026.988281 546.105469 3021.070312 540.488281 3010.449219 Z M 3624.84375 3169.796875 C 3610.355469 3160.039062 3606.527344 3140.519531 3616.285156 3126.027344 C 3626.039062 3111.558594 3645.554688 3107.71875 3660.042969 3117.449219 C 3674.238281 3127.207031 3678.382812 3146.730469 3668.628906 3161.230469 C 3662.433594 3170.089844 3652.675781 3175.109375 3642.285156 3175.109375 C 3636.40625 3175.109375 3630.164062 3173.347656 3624.84375 3169.796875 Z M 632.738281 3163.878906 C 623.269531 3149.386719 627.125 3129.898438 641.316406 3120.136719 C 655.792969 3110.378906 675.3125 3114.21875 685.074219 3128.707031 C 694.832031 3143.175781 690.976562 3162.699219 676.5 3172.460938 C 671.171875 3176.007812 664.964844 3177.769531 659.042969 3177.769531 C 648.996094 3177.769531 638.949219 3173.058594 632.738281 3163.878906 Z M 3517.523438 3309.347656 C 3504.230469 3298.398438 3502.179688 3278.308594 3513.082031 3265 C 3524.035156 3251.6875 3544.15625 3249.640625 3557.425781 3260.578125 C 3570.746094 3271.808594 3572.816406 3291.621094 3561.890625 3304.929688 C 3555.671875 3312.609375 3546.523438 3316.449219 3537.621094 3316.449219 C 3530.546875 3316.449219 3523.449219 3314.078125 3517.523438 3309.347656 Z M 739.773438 3307.578125 C 728.832031 3293.988281 730.605469 3274.179688 744.207031 3263.238281 C 757.503906 3252.289062 777.3125 3254.050781 788.554688 3267.648438 L 788.554688 3267.359375 C 799.484375 3280.957031 797.722656 3300.769531 784.125 3311.707031 C 778.207031 3316.738281 771.101562 3319.109375 764.304688 3319.109375 C 755.132812 3319.109375 745.980469 3314.980469 739.773438 3307.578125 Z M 3397.175781 3437.660156 C 3384.785156 3425.558594 3384.785156 3405.441406 3396.90625 3393.308594 L 3397.175781 3393.308594 C 3409.320312 3380.890625 3429.128906 3380.890625 3441.542969 3393.308594 C 3453.664062 3405.441406 3453.664062 3425.238281 3441.542969 3437.660156 C 3435.324219 3443.867188 3427.371094 3446.839844 3419.371094 3446.839844 C 3411.394531 3446.839844 3403.101562 3443.867188 3397.175781 3437.660156 Z M 860.394531 3440.03125 C 847.976562 3427.609375 847.976562 3407.796875 860.394531 3395.386719 C 872.519531 3383.257812 892.628906 3383.257812 904.746094 3395.386719 C 917.175781 3407.796875 917.175781 3427.609375 904.746094 3440.03125 C 898.839844 3446.238281 890.550781 3449.207031 882.566406 3449.207031 C 874.585938 3449.207031 866.601562 3446.238281 860.394531 3440.03125 Z M 3264.753906 3553.871094 C 3253.507812 3540.277344 3255.558594 3520.46875 3268.875 3509.527344 C 3282.460938 3498.289062 3302.292969 3500.339844 3313.21875 3513.648438 C 3324.171875 3527.25 3322.414062 3547.058594 3308.804688 3558 C 3303.171875 3563.027344 3296.070312 3565.398438 3289 3565.398438 C 3279.804688 3565.398438 3270.949219 3561.269531 3264.753906 3553.871094 Z M 993.152344 3560.078125 C 979.84375 3549.140625 977.777344 3529.328125 988.722656 3516.019531 C 999.953125 3502.417969 1019.761719 3500.339844 1033.070312 3511.578125 C 1046.671875 3522.519531 1048.441406 3542.328125 1037.503906 3555.929688 C 1031.292969 3563.320312 1022.421875 3567.191406 1013.261719 3567.191406 C 1006.160156 3567.191406 999.058594 3565.109375 993.152344 3560.078125 Z M 3121.332031 3656.460938 C 3111.890625 3641.96875 3115.722656 3622.449219 3130.234375 3612.691406 C 3144.699219 3602.960938 3164.210938 3606.800781 3173.96875 3621.269531 C 3183.433594 3635.757812 3179.601562 3655.28125 3165.113281 3665.039062 C 3159.796875 3668.589844 3153.578125 3670.347656 3147.675781 3670.347656 C 3137.625 3670.347656 3127.527344 3665.328125 3121.332031 3656.460938 Z M 1137.140625 3666.800781 C 1122.652344 3657.039062 1118.8125 3637.550781 1128.570312 3623.058594 C 1138.023438 3608.558594 1157.542969 3604.71875 1172.019531 3614.480469 C 1186.523438 3624.238281 1190.359375 3643.757812 1180.902344 3658.21875 C 1174.691406 3667.121094 1164.628906 3672.140625 1154.582031 3672.140625 C 1148.660156 3672.140625 1142.460938 3670.347656 1137.140625 3666.800781 Z M 2969.078125 3744.578125 C 2960.785156 3729.199219 2966.714844 3709.960938 2981.789062 3701.707031 L 2982.082031 3701.707031 C 2997.179688 3693.417969 3016.375 3699.339844 3024.667969 3714.699219 C 3032.644531 3730.089844 3027.035156 3749 3011.644531 3757.289062 C 3006.933594 3759.949219 3001.886719 3761.128906 2996.863281 3761.128906 C 2985.617188 3761.128906 2974.691406 3754.917969 2969.078125 3744.578125 Z M 1290.882812 3758.761719 C 1275.511719 3750.789062 1269.601562 3731.558594 1277.871094 3716.167969 C 1286.160156 3700.808594 1305.070312 3695.179688 1320.449219 3703.179688 C 1335.824219 3711.46875 1341.742188 3730.667969 1333.453125 3746.058594 C 1327.839844 3756.390625 1316.902344 3762.601562 1305.664062 3762.601562 C 1300.644531 3762.601562 1295.621094 3761.417969 1290.882812 3758.761719 Z M 2808.828125 3817 C 2802.023438 3801.027344 2809.707031 3782.699219 2825.65625 3775.910156 C 2841.632812 3769.101562 2860.292969 3776.808594 2866.78125 3793.058594 C 2873.5625 3809.027344 2865.878906 3827.359375 2849.925781 3834.148438 C 2845.804688 3835.621094 2841.953125 3836.519531 2837.804688 3836.519531 C 2825.363281 3836.519531 2813.851562 3829.128906 2808.828125 3817 Z M 1452.902344 3835.332031 C 1436.652344 3828.839844 1428.953125 3810.210938 1435.753906 3794.25 C 1442.261719 3778.277344 1460.890625 3770.601562 1476.851562 3777.101562 C 1492.820312 3783.878906 1500.519531 3802.21875 1494.011719 3818.179688 C 1488.980469 3830.308594 1477.160156 3837.699219 1464.730469 3837.699219 C 1460.890625 3837.699219 1456.761719 3837.121094 1452.902344 3835.332031 Z M 2642.0625 3873.480469 C 2637.039062 3856.929688 2646.210938 3839.488281 2663.0625 3834.441406 C 2679.625 3829.128906 2697.066406 3838.597656 2702.089844 3855.136719 C 2707.113281 3872 2697.96875 3889.441406 2681.382812 3894.46875 C 2678.164062 3895.359375 2675.164062 3895.9375 2671.941406 3895.9375 C 2658.625 3895.9375 2646.210938 3887.070312 2642.0625 3873.480469 Z M 1621.730469 3895.652344 C 1604.882812 3890.628906 1595.421875 3872.902344 1600.449219 3856.320312 C 1605.472656 3839.488281 1623.210938 3830.308594 1639.773438 3835.332031 C 1656.332031 3840.359375 1665.792969 3857.800781 1660.761719 3874.367188 C 1656.621094 3887.96875 1644.210938 3896.828125 1630.609375 3896.828125 C 1627.652344 3896.828125 1624.691406 3896.550781 1621.730469 3895.652344 Z M 2470.589844 3913.410156 C 2467.03125 3896.261719 2477.980469 3879.679688 2495.128906 3876.449219 L 2495.128906 3876.128906 C 2512.277344 3872.902344 2528.8125 3884.128906 2532.375 3900.960938 C 2535.644531 3918.109375 2524.398438 3934.6875 2507.542969 3937.917969 C 2505.496094 3938.53125 2503.421875 3938.820312 2501.324219 3938.820312 C 2486.542969 3938.820312 2473.542969 3928.1875 2470.589844 3913.410156 Z M 1795.292969 3938.820312 C 1778.441406 3935.261719 1767.214844 3918.71875 1770.453125 3901.859375 C 1774.011719 3884.707031 1790.554688 3873.480469 1807.703125 3877.03125 C 1824.5625 3880.289062 1835.792969 3896.828125 1832.242188 3913.992188 C 1829.28125 3929.058594 1816.28125 3939.417969 1801.492188 3939.417969 C 1799.433594 3939.417969 1797.351562 3939.097656 1795.292969 3938.820312 Z M 2295.84375 3935.871094 C 2294.070312 3918.71875 2306.78125 3903.328125 2324.222656 3901.570312 C 2341.371094 3899.808594 2356.761719 3912.511719 2358.519531 3929.949219 C 2360.3125 3947.097656 2347.582031 3962.457031 2330.140625 3964.25 C 2329.242188 3964.25 2328.382812 3964.539062 2327.191406 3964.539062 C 2311.234375 3964.539062 2297.632812 3952.417969 2295.84375 3935.871094 Z M 1972.683594 3964.539062 C 1955.242188 3963.070312 1942.53125 3947.679688 1944.300781 3930.238281 C 1946.082031 3913.089844 1961.453125 3900.390625 1978.601562 3901.859375 C 1996.042969 3903.648438 2008.761719 3919.011719 2006.992188 3936.160156 C 2005.503906 3952.417969 1991.613281 3964.828125 1975.644531 3964.828125 C 1974.460938 3964.828125 1973.582031 3964.828125 1972.683594 3964.539062 Z M 2119.921875 3941.46875 C 2119.921875 3924.320312 2134.121094 3910.140625 2151.570312 3910.140625 C 2168.710938 3910.140625 2182.914062 3924.03125 2182.914062 3941.46875 C 2182.914062 3958.9375 2169.011719 3973.121094 2151.570312 3973.121094 C 2134.121094 3973.121094 2119.921875 3958.9375 2119.921875 3941.46875" style="fill: rgb(58, 56, 56);"/></g></g></svg>